<svg width="100" height="100" viewBox="0 0 100 100" fill="none" xmlns="http://www.w3.org/2000/svg">
  <!-- Concept: A bookmark shape that transforms into a vault door/keyhole -->
  <path d="M30 15H70C75.5228 15 80 19.4772 80 25V85L50 70L20 85V25C20 19.4772 24.4772 15 30 15Z" fill="#2563EB"/>
  
  <!-- Subtle depth overlay -->
  <path d="M20 85L50 70L80 85V75L50 60L20 75V85Z" fill="black" fill-opacity="0.2"/>
  
  <!-- Vault mechanism/keyhole cutout illusion -->
  <path d="M50 35C44.4772 35 40 39.4772 40 45C40 48.5362 41.9126 51.6253 44.7559 53.3271L43 62H57L55.2441 53.3271C58.0874 51.6253 60 48.5362 60 45C60 39.4772 55.5228 35 50 35ZM50 48C48.3431 48 47 46.6569 47 45C47 43.3431 48.3431 42 50 42C51.6569 42 53 43.3431 53 45C53 46.6569 51.6569 48 50 48Z" fill="white"/>
</svg>