<?xml version="1.0" encoding="UTF-8" ?>
<!DOCTYPE svg PUBLIC "-//W3C//DTD SVG 1.1//EN" "http://www.w3.org/Graphics/SVG/1.1/DTD/svg11.dtd">
<svg width="1408pt" height="768pt" viewBox="0 0 1408 768" version="1.1" xmlns="http://www.w3.org/2000/svg">
<g id="#f9fcfbff">
</g>
<g id="#010101ff">
<path fill="#010101" opacity="1.00" d=" M 582.28 290.26 C 597.20 270.61 626.10 261.68 648.86 272.35 C 664.76 280.08 678.43 293.00 686.01 309.06 C 688.89 315.29 690.52 322.09 690.71 328.95 C 691.04 339.92 690.57 350.89 690.54 361.86 C 686.32 361.54 682.28 360.19 678.08 359.74 C 675.36 365.48 671.78 370.97 666.96 375.20 C 668.08 380.03 667.84 385.63 664.38 389.49 C 660.21 394.00 655.37 398.76 648.96 399.50 C 645.74 399.96 642.67 398.70 639.79 397.44 C 638.51 398.30 637.24 399.16 635.97 400.02 C 642.20 403.47 648.39 407.01 654.59 410.53 C 662.13 414.56 669.06 420.38 672.70 428.29 C 676.35 437.45 676.34 448.62 670.44 456.87 C 702.26 457.42 734.10 456.90 765.93 457.14 C 765.27 454.62 764.51 451.90 765.46 449.35 C 766.61 446.30 769.77 444.22 773.04 444.41 C 785.64 444.40 798.23 444.52 810.83 444.44 C 808.30 420.90 805.64 397.38 803.07 373.85 C 816.54 374.10 830.02 373.80 843.50 373.83 C 846.57 391.98 851.57 409.75 854.60 427.91 C 855.79 434.30 857.68 440.53 858.77 446.93 C 859.45 450.47 858.28 453.93 856.87 457.13 C 888.60 457.09 920.33 457.11 952.06 457.08 C 955.48 456.95 958.78 458.50 961.44 460.53 C 964.15 464.00 965.93 468.66 964.79 473.07 C 963.92 479.48 957.24 483.86 951.02 483.32 C 831.36 483.33 711.69 483.39 592.03 483.25 C 583.34 483.70 577.46 473.59 580.25 465.89 C 581.59 461.15 586.04 457.52 590.92 457.12 C 609.97 457.05 629.02 457.14 648.06 457.10 C 657.73 456.24 664.47 445.14 661.40 436.08 C 659.17 427.38 650.39 423.10 643.22 419.01 C 635.40 414.49 627.81 409.53 619.83 405.32 C 602.01 409.73 581.51 407.30 567.47 394.65 C 568.24 404.89 567.92 415.20 567.66 425.46 C 572.60 422.58 578.18 420.39 584.00 420.67 C 598.67 420.78 613.35 420.59 628.02 420.71 C 631.74 420.60 634.92 424.45 634.08 428.10 C 633.56 430.60 631.97 433.86 628.98 433.72 C 613.66 433.87 598.33 433.78 583.00 433.82 C 575.44 433.96 568.62 440.32 568.28 447.94 C 567.57 463.90 567.99 479.89 567.88 495.87 C 587.88 496.44 607.92 496.00 627.94 496.11 C 638.50 495.85 649.43 497.02 658.92 501.97 C 665.26 505.37 671.55 508.87 677.72 512.55 C 680.72 514.36 683.58 516.42 685.27 519.53 C 686.29 521.41 686.76 523.51 686.97 525.62 C 687.35 529.47 687.08 533.37 686.72 537.23 C 685.99 545.17 681.74 552.22 675.26 557.07 C 668.27 562.31 659.57 564.28 651.00 564.75 C 640.33 565.33 629.57 564.87 618.90 564.90 C 586.53 564.99 554.15 564.99 521.78 564.90 C 518.73 564.89 515.65 563.85 513.09 562.18 C 509.77 559.99 507.25 556.77 505.00 553.46 C 500.20 546.36 498.70 537.77 498.66 529.28 C 498.59 512.28 498.66 495.28 498.63 478.28 C 498.61 465.61 498.70 452.95 498.63 440.28 C 498.57 428.95 498.70 417.61 498.62 406.28 C 498.54 394.95 498.67 383.61 498.61 372.28 C 498.55 363.61 498.65 354.95 498.61 346.28 C 498.58 339.61 498.64 332.95 498.61 326.28 C 498.59 321.61 498.63 316.95 498.61 312.28 C 498.59 308.95 498.62 305.61 498.61 302.28 C 498.60 300.28 498.62 298.28 498.61 296.28 C 498.61 295.28 498.61 294.28 498.61 293.28 C 498.61 292.95 498.61 292.61 498.61 292.28 C 498.61 292.11 498.61 291.95 498.61 291.78 C 498.61 291.70 498.61 291.61 498.61 291.53 C 498.61 291.49 498.61 291.45 498.61 291.41 C 498.61 291.39 498.61 291.37 498.61 291.34 C 498.61 291.33 498.61 291.32 498.61 291.31 C 498.61 291.31 498.61 291.30 498.61 291.29 C 498.61 291.29 498.61 291.29 498.61 291.28 C 498.61 291.28 498.61 291.28 498.61 291.28 C 498.61 291.28 498.61 291.28 498.61 291.28 Z M 712.04 278.65 C 783.71 278.60 855.37 278.47 927.04 278.62 C 931.19 278.26 934.91 280.79 937.42 283.87 C 939.52 286.39 939.55 289.84 939.64 292.95 C 939.71 331.31 939.64 369.66 939.71 408.02 C 939.78 414.32 934.50 420.44 927.98 420.26 C 905.73 420.35 883.48 420.33 861.24 420.20 C 858.42 401.90 853.01 384.10 850.41 365.76 C 831.47 365.69 812.54 365.71 793.61 365.77 C 796.20 383.86 797.48 402.09 799.93 420.20 C 770.29 420.45 740.65 420.26 711.01 420.37 C 704.50 420.45 698.79 414.38 698.97 407.93 C 698.97 372.95 698.80 337.95 699.05 302.97 C 699.04 297.92 698.49 292.80 699.40 287.81 C 700.60 282.17 706.36 278.19 712.04 278.65 Z" />
</g>
</svg>