<?xml version="1.0" encoding="UTF-8" standalone="no"?>
<!-- Created with Inkscape (http://www.inkscape.org/) -->

<svg
   width="184.24608mm"
   height="131.99762mm"
   viewBox="0 0 184.24608 131.99762"
   version="1.1"
   id="svg1"
   xml:space="preserve"
   inkscape:version="1.3.2 (091e20e, 2023-11-25, custom)"
   sodipodi:docname="dibujo-1.svg"
   xmlns:inkscape="http://www.inkscape.org/namespaces/inkscape"
   xmlns:sodipodi="http://sodipodi.sourceforge.net/DTD/sodipodi-0.dtd"
   xmlns="http://www.w3.org/2000/svg"
   xmlns:svg="http://www.w3.org/2000/svg"><sodipodi:namedview
     id="namedview1"
     pagecolor="#505050"
     bordercolor="#eeeeee"
     borderopacity="1"
     inkscape:showpageshadow="0"
     inkscape:pageopacity="0"
     inkscape:pagecheckerboard="0"
     inkscape:deskcolor="#505050"
     inkscape:document-units="mm"
     inkscape:zoom="0.73139029"
     inkscape:cx="348.65106"
     inkscape:cy="249.52478"
     inkscape:window-width="1920"
     inkscape:window-height="1017"
     inkscape:window-x="1016"
     inkscape:window-y="1072"
     inkscape:window-maximized="1"
     inkscape:current-layer="svg1" /><defs
     id="defs1" /><g
     id="g2"
     transform="matrix(0.35277778,0,0,0.35277778,-156.23398,-94.472302)"><g
       id="#f9fcfbff-4" /><g
       id="#010101ff-9"><path
         fill="#010101"
         opacity="1"
         d="m 582.28,290.26 c 14.92,-19.65 43.82,-28.58 66.58,-17.91 15.9,7.73 29.57,20.65 37.15,36.71 2.88,6.23 4.51,13.03 4.7,19.89 0.33,10.97 -0.14,21.94 -0.17,32.91 -4.22,-0.32 -8.26,-1.67 -12.46,-2.12 -2.72,5.74 -6.3,11.23 -11.12,15.46 1.12,4.83 0.88,10.43 -2.58,14.29 -4.17,4.51 -9.01,9.27 -15.42,10.01 -3.22,0.46 -6.29,-0.8 -9.17,-2.06 -1.28,0.86 -2.55,1.72 -3.82,2.58 6.23,3.45 12.42,6.99 18.62,10.51 7.54,4.03 14.47,9.85 18.11,17.76 3.65,9.16 3.64,20.33 -2.26,28.58 31.82,0.55 63.66,0.03 95.49,0.27 -0.66,-2.52 -1.42,-5.24 -0.47,-7.79 1.15,-3.05 4.31,-5.13 7.58,-4.94 12.6,-0.01 25.19,0.11 37.79,0.03 -2.53,-23.54 -5.19,-47.06 -7.76,-70.59 13.47,0.25 26.95,-0.05 40.43,-0.02 3.07,18.15 8.07,35.92 11.1,54.08 1.19,6.39 3.08,12.62 4.17,19.02 0.68,3.54 -0.49,7 -1.9,10.2 31.73,-0.04 63.46,-0.02 95.19,-0.05 3.42,-0.13 6.72,1.42 9.38,3.45 2.71,3.47 4.49,8.13 3.35,12.54 -0.87,6.41 -7.55,10.79 -13.77,10.25 -119.66,0.01 -239.33,0.07 -358.99,-0.07 -8.69,0.45 -14.57,-9.66 -11.78,-17.36 1.34,-4.74 5.79,-8.37 10.67,-8.77 19.05,-0.07 38.1,0.02 57.14,-0.02 9.67,-0.86 16.41,-11.96 13.34,-21.02 -2.23,-8.7 -11.01,-12.98 -18.18,-17.07 -7.82,-4.52 -15.41,-9.48 -23.39,-13.69 -17.82,4.41 -38.32,1.98 -52.36,-10.67 0.77,10.24 0.45,20.55 0.19,30.81 4.94,-2.88 10.52,-5.07 16.34,-4.79 14.67,0.11 29.35,-0.08 44.02,0.04 3.72,-0.11 6.9,3.74 6.06,7.39 -0.52,2.5 -2.11,5.76 -5.1,5.62 -15.32,0.15 -30.65,0.06 -45.98,0.1 -7.56,0.14 -14.38,6.5 -14.72,14.12 -0.71,15.96 -0.29,31.95 -0.4,47.93 20,0.57 40.04,0.13 60.06,0.24 10.56,-0.26 21.49,0.91 30.98,5.86 6.34,3.79 12.03,8.93 15.72,15.39 1.63,2.78 2.73,5.85 4.55,8.54 23.04,35.56 46.97,70.54 70.11,106.04 2.29,3.77 -0.45,10.11 -5.23,9.82 -2.05,0.13 -4.37,-0.41 -5.46,-2.31 -7.45,-10.38 -14.32,-21.16 -21.3,-31.85 -9.81,-13.92 -18.76,-28.4 -28.36,-42.46 5.65,20.96 11.49,41.87 17.12,62.83 0.85,3.34 2.66,6.9 1.21,10.34 -1.73,3.93 -7.44,4.76 -10.6,2.14 -2.58,-3.07 -2.84,-7.27 -3.95,-10.96 -5.14,-19.75 -10.67,-39.39 -15.99,-59.09 -3.05,-12.61 -6.86,-25.01 -10.17,-37.54 -1.83,-7.5 -6.3,-14.62 -13.07,-18.55 -5.37,-3.78 -12.04,-5.06 -18.49,-5.21 -19.36,0 -38.72,0.02 -58.08,0 -3.04,0 -6.1,-0.17 -9.12,0.33 0.14,12.45 0.06,24.9 0.03,37.34 17.38,0.07 34.76,0.02 52.14,0.07 3.62,0.01 7.62,0.03 10.58,2.46 3.73,2.93 4.39,8 5.7,12.26 6.65,23.81 12.87,47.74 19.85,71.45 1.11,3.08 -0.67,6.41 -3.08,8.31 -3.76,1.39 -8.84,-0.02 -9.65,-4.38 -5.41,-20.06 -11.51,-39.94 -16.61,-60.09 -2.4,2.4 -5.24,4.8 -8.81,4.86 -16.65,0.09 -33.31,-0.01 -49.96,0.05 0.38,13.28 -9.68,25.58 -22.53,28.41 -10.22,2.39 -21.31,-1.62 -28.2,-9.38 -4.48,-5.29 -6.98,-12.1 -7.14,-19.02 -15.07,-0.18 -30.14,0.12 -45.2,-0.08 -10.63,-0.52 -19.39,-9.45 -21.52,-19.57 -0.8,-5.37 -0.46,-10.81 -0.52,-16.22 0.09,-56.98 -0.17,-113.97 0.19,-170.95 -0.3,-6.92 6.26,-12.73 13.01,-12.41 5.98,-0.02 11.27,4.84 12.3,10.62 1.1,15.97 -0.53,32.04 0.97,47.98 2.25,-20.95 6.84,-42.35 18.59,-60.2 6.89,-9.64 15.84,-18.24 26.79,-23.04 14.74,-7.39 31.28,-9.84 46.69,-15.41 -2.48,-10.15 1.75,-21.64 10.8,-27.1 3.01,-2.43 7.71,-1.79 10.05,-5.13 m -9.86,27.66 c 0.94,3.11 2.58,6.83 0.35,9.78 -4.98,6.73 -7.54,14.97 -8.48,23.22 -1.13,9.58 0.18,19.82 5.73,27.93 5.01,8.19 13.71,13.7 23.04,15.61 12.76,2.66 26.25,0.07 37.81,-5.72 -2.5,-3.79 -5.5,-7.86 -5.11,-12.65 0.27,-4.99 3.65,-9.13 7.39,-12.13 -1.03,-1.31 -2.04,-2.62 -3.06,-3.93 -3.68,3.6 -8.77,6.08 -14.02,5.31 -5.37,-0.75 -8.88,-5.3 -12.5,-8.86 -3.83,-4.03 -8.69,-8.43 -8.18,-14.54 0.1,-5.6 4.15,-9.78 7.98,-13.36 -3.96,-6.17 -7.18,-12.78 -10.99,-19.03 -2.06,-2.83 -4.33,-6.63 -8.33,-6.49 -7.2,0.03 -13.62,7.7 -11.63,14.86 m 51.47,-12.24 c -6.1,2.86 -12.56,5.17 -19.26,6.08 2.41,3.84 3.98,8.27 7.04,11.66 2.74,0.26 5.67,-0.32 8.24,0.97 3.79,1.51 6.29,4.9 8.95,7.84 2.86,3.44 6.65,6.36 8.12,10.76 1.23,3.52 0.01,7.26 -1.11,10.65 1.45,1.41 2.91,2.82 4.4,4.2 3.28,-0.27 6.81,-0.81 9.87,0.77 3.57,2.06 6.11,5.44 9.56,7.68 3.02,-3.9 6.06,-7.79 8.68,-11.98 -4.2,-3.37 -8.75,-6.34 -12.4,-10.35 -10.03,-9.78 -16.53,-22.36 -23.8,-34.16 -1.72,-2.62 -4.92,-5.95 -8.29,-4.12 m -11.61,27.46 c -2.68,2.72 -6.44,4.93 -7.56,8.76 0.26,4.02 4.21,6.12 6.37,9.12 2.17,2.4 5.04,6.52 8.78,4.72 3.41,-2.07 7.11,-4.72 8.39,-8.67 -0.74,-4.82 -5.67,-7.3 -8.3,-11.05 -1.64,-2.37 -4.84,-5.13 -7.68,-2.88 m -68.51,7.45 c 2.51,5.1 6.38,9.35 9.36,14.17 -0.2,-5.7 0.62,-11.36 1.85,-16.91 -3.71,1.04 -7.4,2.14 -11.21,2.74 m -36.33,17.76 c -5.61,5.38 -9.92,11.97 -13.5,18.83 -8.85,18.3 -11,38.77 -13.48,58.69 -2.7,19.47 -3.26,39.19 -2.14,58.81 10.67,-0.03 21.35,0.01 32.02,-0.1 0.02,-24.86 -0.02,-49.73 -0.03,-74.59 -0.14,-2.83 0.76,-6.02 3.48,-7.37 4.27,-2.55 10.28,1.38 9.74,6.34 0.24,54.34 -0.08,108.68 0.06,163.02 0.04,2.32 0.59,4.64 1.59,6.75 3.76,9.16 17.35,11.63 24.42,4.9 3.14,-2.98 5.26,-7.2 5.21,-11.58 -0.09,-62.03 -0.09,-124.05 -0.06,-186.08 0.09,-7.17 -2.12,-14.13 -5.37,-20.44 -5.15,-10.75 -11.82,-20.69 -19.14,-30.06 -8.49,2.43 -16.26,6.98 -22.8,12.88 m 137,8.25 c -3.11,1.26 -5.22,4.05 -7.6,6.29 -2.5,2.01 -2.23,6.06 0.09,8.1 3.13,2.96 5.61,6.61 9.06,9.22 3.05,1.1 5.41,-1.9 7.69,-3.43 2.29,-1.83 5.85,-4.16 4.51,-7.61 -2.98,-3.73 -6.45,-7.04 -9.7,-10.52 -1.21,-0.87 -2.37,-2.95 -4.05,-2.05 M 480.02,508.21 c 1.44,5.99 2.93,12.14 6.35,17.36 5.48,8.61 14.07,15.46 23.92,18.28 0.26,-11.91 -0.22,-23.82 0.28,-35.72 -10.18,-0.06 -20.37,-0.07 -30.55,0.08 m -11.15,9.63 c -0.32,12.65 0.04,25.31 -0.28,37.96 11.59,-0.15 23.17,-0.05 34.75,-0.16 -16.94,-5.74 -30.25,-20.43 -34.47,-37.8 z"
         id="path1-6" /><path
         fill="#010101"
         opacity="1"
         d="m 712.04,278.65 c 71.67,-0.05 143.33,-0.18 215,-0.03 4.15,-0.36 7.87,2.17 10.38,5.25 2.1,2.52 2.13,5.97 2.22,9.08 0.07,38.36 0,76.71 0.07,115.07 0.07,6.3 -5.21,12.42 -11.73,12.24 -22.25,0.09 -44.5,0.07 -66.74,-0.06 -2.82,-18.3 -8.23,-36.1 -10.83,-54.44 -18.94,-0.07 -37.87,-0.05 -56.8,0.01 2.59,18.09 3.87,36.32 6.32,54.43 -29.64,0.25 -59.28,0.06 -88.92,0.17 -6.51,0.08 -12.22,-5.99 -12.04,-12.44 0,-34.98 -0.17,-69.98 0.08,-104.96 -0.01,-5.05 -0.56,-10.17 0.35,-15.16 1.2,-5.64 6.96,-9.62 12.64,-9.16 z"
         id="path2" /></g></g></svg>
